<?xml version="1.0" ?><!DOCTYPE svg  PUBLIC '-//W3C//DTD SVG 1.1//EN'  'http://www.w3.org/Graphics/SVG/1.1/DTD/svg11.dtd'><svg height="2048px" style="shape-rendering:geometricPrecision; text-rendering:geometricPrecision; image-rendering:optimizeQuality; fill-rule:evenodd; clip-rule:evenodd" viewBox="0 0 2048 2048" width="2048px" xml:space="preserve" xmlns="http://www.w3.org/2000/svg" xmlns:xlink="http://www.w3.org/1999/xlink"><defs><style type="text/css">
   <![CDATA[
    .fil1 {fill:none}
    .fil0 {fill:#424242}
   ]]>
  </style></defs><g id="Layer_x0020_1"><g id="_246132440"><path class="fil0" d="M1280.84 1001.45l0 38.2819 72.4087 0c18.7725,0 34.0748,15.3142 34.0748,34.0843 0,18.7925 -15.2658,34.1351 -34.0748,34.1351l-106.55 0c-18.8091,0 -34.0784,-15.3414 -34.0784,-34.1351l0 -212.956c0,-18.7748 15.2941,-34.1173 34.0784,-34.1173l106.55 0c18.7937,0 34.0748,15.3354 34.0748,34.1173 0,18.7973 -15.2634,34.1268 -34.0748,34.1268l-72.4087 0 0 38.2689 72.4087 0c18.8079,0 34.0748,15.313 34.0748,34.1114 0,18.7819 -15.2917,34.0831 -34.0748,34.0831l-72.4087 0zm-253.669 -41.0457l0 113.412c0,18.8398 -15.2622,34.1351 -34.1091,34.1351 -18.828,0 -34.1103,-15.313 -34.1103,-34.1351l0 -212.956c0,-14.6953 9.39331,-27.7418 23.3492,-32.3634 3.47244,-1.15039 7.11851,-1.75394 10.7776,-1.75394 10.6961,0 20.954,5.08347 27.2941,13.7173l98.3174 133.891 0 -113.491c0,-18.7949 15.3118,-34.1173 34.1091,-34.1173 18.8067,0 34.1126,15.3118 34.1126,34.1173l0 212.956c0,14.7378 -9.37678,27.7288 -23.361,32.3764 -3.48071,1.1563 -7.11497,1.75866 -10.7835,1.75866 -10.6996,0 -20.948,-5.06339 -27.2941,-13.702l-98.302 -133.845zm-96.6296 113.412c0,18.8114 -15.2551,34.1351 -34.0819,34.1351 -18.8327,0 -34.0985,-15.3118 -34.0985,-34.1351l0 -212.956c0,-18.7973 15.2965,-34.1173 34.0985,-34.1173 18.7937,0 34.0819,15.3319 34.0819,34.1173l0 212.956zm-188.535 -34.0843l72.378 0c18.8185,0 34.1103,15.2599 34.1103,34.0843 0,18.8492 -15.2551,34.1351 -34.1103,34.1351l-106.471 0c-18.8303,0 -34.0807,-15.3189 -34.0807,-34.1351l0 -212.956c0,-18.789 15.2823,-34.1173 34.0807,-34.1173 18.8043,0 34.0925,15.3201 34.0925,34.1173l0 178.872z" id="_324468776"/><path class="fil0" d="M1775.91 556.208c0.112205,-78.0048 -31.3961,-148.658 -82.4292,-199.833 -51.052,-51.1926 -121.654,-82.917 -199.696,-83.0434l0 -0.0625985 -0.046063 0 0 0.0625985 -937.459 -1.31575c-78.0178,-0.0980316 -148.689,31.4221 -199.872,82.4634 -51.2032,51.0603 -82.9323,121.665 -83.0481,199.71l-1.32047 937.523c-0.0968505,78.0213 31.4268,148.702 82.4682,199.892 51.0603,51.2103 121.667,82.9442 199.701,83.0552l937.437 1.3252c78.0296,0.106299 148.7,-31.4103 199.885,-82.4552 51.2079,-51.0662 82.9383,-121.69 83.0646,-199.76l1.31575 -937.516 0.0625985 0 0 -0.046063 -0.0625985 0zm-318.839 681.407l0 0zm-487.391 223.094l0 0zm54.5575 -952.367c151.482,0 289.036,50.1662 388.838,131.158 100.711,81.7312 163.089,194.825 163.089,319.767 0,50.165 -9.73229,97.8674 -29.6268,144.176 -15.7217,36.5953 -37.78,72.2233 -66.3898,107.424l0.154725 0 -2.72717 3.14055c-6.50315,7.88977 -13.3358,15.7571 -20.5051,23.6079 -46.1705,53.0764 -114.836,110.498 -184.151,161.728 -102.645,75.8658 -207.585,138.685 -242.495,153.404 -42.0189,17.6882 -59.9162,6.91654 -67.2567,-10.5248 -5.24646,-12.4654 -2.75906,-26.4532 -1.29685,-34.6666l0.196063 -1.10669 0.0200788 0.00354331 7.59213 -45.7441c0.826772,-6.3 1.64291,-14.1532 1.65945,-21.7181 0.0129921,-6.89528 -0.588189,-13.5354 -2.42599,-18.1701l-0.0212599 0.00826772c-1.04882,-2.59134 -4.27914,-5.14016 -8.47323,-7.48701 -7.86379,-4.39843 -18.2563,-7.36772 -27.0366,-9.25513 -132.168,-17.6906 -247.266,-72.9851 -329.335,-151.563 -82.5426,-79.03 -131.786,-181.554 -131.786,-293.257 0,-124.938 62.3871,-238.034 163.106,-319.762 99.815,-80.9942 237.385,-131.163 388.871,-131.163z" id="_246112712"/></g></g><rect class="fil1" height="2048" width="2048"/></svg>