<svg xmlns="http://www.w3.org/2000/svg" viewBox="0 0 211.69 237.72"><defs><style>.cls-1{fill:#009a3e;}.cls-2{fill:#e77114;}.cls-3{fill:#e88415;}.cls-4{fill:#e8bd3b;}.cls-5{fill:#005939;}.cls-6{fill:#94cd9f;}.cls-7{fill:#fff;}.cls-8{fill:none;}.cls-9{fill:#15933d;}.cls-10{fill:#dfb73f;}.cls-11{fill:#df811d;}.cls-12{fill:#dd6f1a;}</style></defs><g id="圖層_2" data-name="圖層 2"><g id="圖層_1-2" data-name="圖層 1"><path class="cls-1" d="M35.19,62.36C25.28,54.38,13.14,52,0,52.17V46.53l3.12-8.71c15.77.78,31,4,43.51,14Q40.9,57.11,35.19,62.36Z"/><path class="cls-1" d="M49.57,0c5.46,7.07,2.86,14.58,1,21.78-1.66,6.52-4.68,12.79-7.34,19.8C29,28.18,30.69,11,46.27,0Z"/><path class="cls-2" d="M35.19,62.36q5.72-5.25,11.44-10.49c4.18-3,8.79-5.75,12.48-9.18,23.52-21.84,52.56-24.38,84.08-17.47,16.87,3.69,31.6,10.84,42.69,22.69a34.54,34.54,0,0,1,4.59,5.82c3.59,6,1.46,8.76-6.51,8.51a46,46,0,0,1-5.73-.58c-1.83-.27-3.63-.7-5.47-1.06-.23.81-.59,1.33-.41,1.6,7.09,11.11,4.4,14.18-10.59,15.38-13,1-26.35,2.54-38.56,6.2-16.93,5.08-23.64,16.6-17.7,31,5,12,13.28,23,20.33,34.31,1.92,3.08,4.61,5.81,7,8.7-7.93-.15-15.94.23-23.77-.57-29.53-3-57.66-10.45-84.92-20.43C23.87,119.84,22.4,102.83,24,86,24.75,77.93,31.28,70.24,35.19,62.36Z"/><path class="cls-3" d="M24.09,136.77c27.26,10,55.39,17.41,84.92,20.43,7.83.8,15.84.42,23.77.57l17.84-2.55a37.47,37.47,0,0,1-3.76,4.3q-24,20.34-48.06,40.58C66.36,197.22,28.43,172.79,24.09,136.77Z"/><path class="cls-4" d="M98.8,200.1q24-20.28,48.06-40.58a37.47,37.47,0,0,0,3.76-4.3l-.22,0,3.34-1.19,57.95-13.81C200.41,179.48,151.46,205.9,98.8,200.1Z"/><path class="cls-5" d="M198,83.29c-.07,4.12-4,7.5-8.83,7.51-5,0-9.17-3.63-8.94-7.88s4.32-7.4,9.1-7.28S198.07,79.21,198,83.29Z"/><path class="cls-5" d="M174,93.45c-.07,4.55-4.47,8.3-9.76,8.31-5.57,0-10.15-4-9.9-8.72s4.79-8.19,10.07-8.06S174.11,88.93,174,93.45Z"/><path class="cls-6" d="M153.74,154.06l-3.34,1.19Z"/><line class="cls-2" x1="82.85" y1="231.56" x2="82.85" y2="230"/><path class="cls-5" d="M139.25,218.3c-1.52,1-3.37,1.14-4.13.3s-.15-2.33,1.37-3.33,7-2.18,7-2.18S140.77,217.3,139.25,218.3Z"/><polygon class="cls-7" points="136.15 217.86 135.9 217.58 140.66 214.5 140.91 214.78 136.15 217.86"/><polygon class="cls-7" points="137.16 217.17 137.12 216.82 138.69 216.68 138.74 217.04 137.16 217.17"/><polygon class="cls-7" points="137.78 216.5 137.57 215.77 137.97 215.68 138.18 216.41 137.78 216.5"/><rect class="cls-8" x="164.3" y="215.4" width="5.25" height="1.8"/><rect class="cls-8" x="100.54" y="215.2" width="5.88" height="1.66"/><rect class="cls-8" x="83.93" y="218.72" width="2.05" height="2"/><rect class="cls-8" x="91.62" y="218.72" width="2.05" height="1.91"/><rect class="cls-8" x="86.04" y="226.49" width="2.97" height="1.07"/><rect class="cls-8" x="86.04" y="229.64" width="2.97" height="1.18"/><rect class="cls-8" x="86.04" y="232.9" width="2.97" height="1.27"/><rect class="cls-8" x="100.54" y="219.51" width="5.88" height="1.66"/><rect class="cls-8" x="100.54" y="223.78" width="5.88" height="1.69"/><rect class="cls-8" x="164.3" y="219.79" width="5.25" height="1.8"/><path class="cls-8" d="M54.87,216.8a42.38,42.38,0,0,1,4.2,2.34,15.55,15.55,0,0,0,1.12-2.84H55.24Z"/><path class="cls-8" d="M184.77,233.61H205.4V215.4H184.77Zm20-2.12-2.5,1.28a57.77,57.77,0,0,0-7.89-4.9l2.37-1.13c.93.48,2,1.07,3.07,1.66.89-.53,1.88-1.13,2.51-1.61l2.31,1.31a23.69,23.69,0,0,1-2.78,1.49A32.37,32.37,0,0,1,204.74,231.49Zm-18.85-11.67h7.36v-1.1h-5.81v-1.8h5.81v-1.19h3.57v1.19h6.07v1.8h-6.07v1.1h7.43v1.85H185.89Zm5.45,6.67h-3.76v-4h15.21v4H195.7a17.11,17.11,0,0,1-3.34,1.74v2.39l4.13-.81a8,8,0,0,0,0,2c-5.61,1.19-6.57,1.47-7.13,1.75a4.93,4.93,0,0,0-.89-1.72,1.48,1.48,0,0,0,1.09-1.57v-1c-.89.29-1.78.54-2.61.76a20.66,20.66,0,0,0-1.88-1.85A33.29,33.29,0,0,0,191.34,226.49Z"/><rect class="cls-8" x="32.22" y="215.4" width="5.25" height="1.8"/><rect class="cls-8" x="32.22" y="219.79" width="5.25" height="1.8"/><rect class="cls-8" x="154.82" y="219.79" width="5.31" height="1.8"/><rect class="cls-8" x="190.84" y="223.9" width="8.52" height="1.15"/><rect class="cls-8" x="22.75" y="215.4" width="5.31" height="1.8"/><rect class="cls-8" x="154.82" y="215.4" width="5.31" height="1.8"/><rect class="cls-8" x="22.75" y="219.79" width="5.31" height="1.8"/><path class="cls-9" d="M44.83,229.1V226H32.22v-1.66h9.57V212.61H18.62v11.77h9.44V226H15.42v3.06h9.77a31.59,31.59,0,0,1-10.8,5,18.34,18.34,0,0,1,2.68,2.78,32.6,32.6,0,0,0,11-6v6.79h4.16v-6.93a34.32,34.32,0,0,0,10.93,6,14.13,14.13,0,0,1,2.64-2.85,34.63,34.63,0,0,1-10.7-4.73ZM32.22,215.4h5.25v1.8H32.22Zm0,4.39h5.25v1.8H32.22Zm-4.16,1.8H22.75v-1.8h5.31Zm0-4.39H22.75v-1.8h5.31Z"/><path class="cls-9" d="M64.05,232a24.34,24.34,0,0,1,1.72,5.35l3.89-.65a24.87,24.87,0,0,0-2-5.24Z"/><path class="cls-9" d="M70.79,231.89a34.46,34.46,0,0,1,3.92,5.8l3.7-1.44a35.64,35.64,0,0,0-4.16-5.6Z"/><path class="cls-9" d="M78.21,220v-3.15H71.64c0-.48,0-.93,0-1.38v-3.74H68v3.69a10.2,10.2,0,0,1-.07,1.43h-4c.26-.79.49-1.63.69-2.48l-2.44-.78-.69.08H56.92c.33-.59.66-1.15.92-1.72l-3.66-1a19.19,19.19,0,0,1-6.6,8.41,14.74,14.74,0,0,1,1.52,3,22.5,22.5,0,0,0,4.19-3.69,36.59,36.59,0,0,1,4.36,2.76,18.62,18.62,0,0,1-9.38,6.5A13.42,13.42,0,0,1,51,230.54,20.54,20.54,0,0,0,63.52,218v2h3.8c-.86,2.9-2.84,6.11-7.4,8.79a16.41,16.41,0,0,1,3,2.14,16.72,16.72,0,0,0,7.6-8.48,45.49,45.49,0,0,1,4.42,7.74l3.53-1.38A52.28,52.28,0,0,0,72.86,220Zm-19.14-.84a42.38,42.38,0,0,0-4.2-2.34l.37-.5h4.95A15.55,15.55,0,0,1,59.07,219.14Z"/><path class="cls-9" d="M47.58,236.39l3.73,1.33a35.49,35.49,0,0,0,4-6l-3.7-.81A27.18,27.18,0,0,1,47.58,236.39Z"/><path class="cls-9" d="M57.38,232a30.42,30.42,0,0,1,.63,5.41l3.86-.48a27.33,27.33,0,0,0-.86-5.26Z"/><path class="cls-9" d="M55.2,221.25c-2.5.56-4.91,1.13-6.63,1.46l.79,2.57,6.24-2Z"/><path class="cls-10" d="M78.28,215.28a20.63,20.63,0,0,0-3.11-3.66L72.34,213a18.27,18.27,0,0,1,2.93,3.8Z"/><polygon class="cls-9" points="93.01 215.09 96.67 215.09 96.67 212.72 93.01 212.72 93.01 211.34 89.91 211.34 89.91 216.55 93.01 216.55 93.01 215.09"/><path class="cls-9" d="M108.13,234.65h-.7c-.36,0-.39-.08-.39-.76v-5.46h2.8V212.24H97.23v16.19h2.22c-.27,2.56-1,4.7-3.47,6.19v-.45H92V232.9h3.7v-2.08H92v-1.18h3.47v-2.08H92v-1.07h4.13v-2.23h-4.1a7.67,7.67,0,0,0-1-1.91h-.5l-2,.67a8.76,8.76,0,0,1,.69,1.24H86.34c.27-.48.5-.93.73-1.4l-1.52-.48H84.49a18.91,18.91,0,0,1-4,5.51,21.64,21.64,0,0,1,1.52,2.31,10.57,10.57,0,0,0,1.22-1.32v8.75H86v-1.21H96v-.17A9.76,9.76,0,0,1,97,237.66c4.12-2,5.28-5.23,5.67-9.23h1.36V234c0,2.5.49,3.35,2.87,3.35h1.58c2,0,2.74-1,3-5.1a9.1,9.1,0,0,1-2.71-1.1C108.72,234.34,108.62,234.65,108.13,234.65ZM89,234.17H86V232.9h3Zm0-3.35H86v-1.18h3Zm0-3.26H86v-1.07h3Zm17.39-2.09h-5.87v-1.69h5.87Zm0-4.3h-5.87v-1.66h5.87Zm0-4.31h-5.87V215.2h5.87Z"/><polygon class="cls-9" points="84.86 216.55 87.89 216.55 87.89 211.34 84.86 211.34 84.86 212.75 80.7 212.75 80.7 215.12 84.86 215.12 84.86 216.55"/><path class="cls-11" d="M95.88,222.35V217H89.51v5.35h6.37Zm-4.26-3.63h2v1.91h-2Z"/><path class="cls-11" d="M88.22,222.38V217h-6.4v5.35h6.4Zm-4.29-1.66v-2h2v2Z"/><path class="cls-9" d="M124,219.31a27.6,27.6,0,0,0-3.7-6.81l-3.53,1.15a30.42,30.42,0,0,1,3.4,6.95Z"/><path class="cls-9" d="M139.53,234.37h-3c-1.09,0-1.25-.17-1.25-1.16v-8.47H144v-3.15H131V211.31h-4v10.28H114.34v3.15h8.06c-.46,4.59-1.36,8-8.92,10a9.37,9.37,0,0,1,2.38,2.92c8.65-2.47,10.17-7,10.73-12.89h4.69v8.5c0,3.21.92,4.28,4.65,4.28h3.93c3.27,0,4.26-1.32,4.65-6.25a13,13,0,0,1-3.59-1.35C140.78,233.75,140.59,234.37,139.53,234.37Z"/><path class="cls-9" d="M176.91,229.1V226H164.3v-1.66h9.57V212.61H150.7v11.77h9.44V226H147.49v3.06h9.78a31.67,31.67,0,0,1-10.8,5,18.26,18.26,0,0,1,2.67,2.78,32.65,32.65,0,0,0,11-6v6.79h4.16v-6.93a34.27,34.27,0,0,0,10.92,6,14.13,14.13,0,0,1,2.64-2.85,34.57,34.57,0,0,1-10.69-4.73ZM164.3,215.4h5.24v1.8H164.3Zm0,4.39h5.24v1.8H164.3Zm-4.16,1.8h-5.32v-1.8h5.32Zm0-4.39h-5.32v-1.8h5.32Z"/><polygon class="cls-9" points="204.25 219.81 196.82 219.81 196.82 218.72 202.89 218.72 202.89 216.92 196.82 216.92 196.82 215.73 193.25 215.73 193.25 216.92 187.44 216.92 187.44 218.72 193.25 218.72 193.25 219.81 185.89 219.81 185.89 221.67 204.25 221.67 204.25 219.81"/><path class="cls-9" d="M189.56,229.27v1a1.48,1.48,0,0,1-1.09,1.57,4.93,4.93,0,0,1,.89,1.72c.56-.28,1.52-.56,7.13-1.75a8,8,0,0,1,0-2l-4.13.81v-2.39a17.11,17.11,0,0,0,3.34-1.74h7.09v-4H187.58v4h3.76a33.29,33.29,0,0,1-6.27,1.69A20.66,20.66,0,0,1,187,230C187.78,229.81,188.67,229.56,189.56,229.27Zm1.28-4.22V223.9h8.52v1.15Z"/><path class="cls-9" d="M181.07,212.38v25.25h3.7v-1H205.4v1h3.83V212.38Zm24.33,21.23H184.77V215.4H205.4Z"/><path class="cls-12" d="M202.3,226.79c-.63.48-1.62,1.08-2.51,1.61-1.09-.59-2.14-1.18-3.07-1.66l-2.37,1.13a57.77,57.77,0,0,1,7.89,4.9l2.5-1.28a32.37,32.37,0,0,0-2.91-1.9,23.69,23.69,0,0,0,2.78-1.49Z"/></g></g></svg>