<svg xmlns="http://www.w3.org/2000/svg" viewBox="0 0 219.07 205.74"><defs><style>.cls-1{fill:#15933d;}.cls-2{fill:#e77114;}.cls-3{fill:#e88415;}.cls-4{fill:#e8bd3b;}.cls-5{fill:#005939;}.cls-6{fill:#94cd9f;}.cls-7{fill:#fff;}.cls-8{fill:none;}.cls-9{fill:#dfb73f;}</style></defs><g id="圖層_2" data-name="圖層 2"><g id="圖層_1-2" data-name="圖層 1"><path class="cls-1" d="M54.3,41.65l-8.74,8.43C38,43.67,28.7,41.78,18.65,41.9V37.37c.69-2,1.38-4,2.38-7C33.1,31,44.76,33.55,54.3,41.65Z"/><path class="cls-1" d="M57.34,17.49c-1.27,5.24-3.58,10.27-5.61,15.9C40.8,22.63,42.12,8.81,54,0h2.53C60.73,5.68,58.74,11.71,57.34,17.49Z"/><path class="cls-2" d="M159.32,50a35.53,35.53,0,0,1-4.38-.46c-1.4-.22-2.78-.57-4.19-.86-.17.65-.45,1.07-.32,1.28,5.43,8.93,3.37,11.39-8.09,12.36-9.94.83-20.15,2-29.49,5C99.91,71.35,94.78,80.6,99.32,92.15c3.79,9.62,10.16,18.45,15.55,27.55a74,74,0,0,0,5.31,7c-6.07-.13-12.19.18-18.18-.46-22.57-2.43-44.08-8.39-64.93-16.41-.16-13.59-1.29-27.25-.08-40.74.58-6.5,5.58-12.68,8.57-19l8.74-8.43C57.5,39.21,61,37,63.85,34.28c18-17.54,40.19-19.57,64.29-14,12.9,3,24.17,8.71,32.64,18.22a27.17,27.17,0,0,1,3.52,4.68C167,48,165.41,50.18,159.32,50Z"/><path class="cls-3" d="M37.07,109.82c20.85,8,42.36,14,64.93,16.41,6,.64,12.11.33,18.18.46l13.64-2a29.67,29.67,0,0,1-2.87,3.45q-18.33,16.33-36.75,32.58C69.39,158.36,40.39,138.75,37.07,109.82Z"/><path class="cls-4" d="M94.2,160.67q18.39-16.28,36.75-32.58a29.67,29.67,0,0,0,2.87-3.45l-.17,0,2.55-1,44.32-11.08C171.89,144.12,134.46,165.33,94.2,160.67Z"/><path class="cls-5" d="M170.06,66.88c-.06,3.31-3.09,6-6.75,6-3.85,0-7-2.92-6.84-6.33s3.31-5.94,7-5.85S170.11,63.6,170.06,66.88Z"/><path class="cls-5" d="M151.72,75c-.05,3.66-3.41,6.66-7.46,6.67-4.26,0-7.76-3.23-7.57-7s3.66-6.58,7.7-6.47S151.78,71.41,151.72,75Z"/><path class="cls-6" d="M136.2,123.7l-2.55,1Z"/><path class="cls-5" d="M140.38,182.81c1.71-1.19,4.73-6.15,4.73-6.15s-6.12,1.38-7.83,2.57-2.4,3-1.54,3.94S138.67,184,140.38,182.81Zm-1.69-2.26-.19-.73.45-.1.15.55,2.87-2,.28.33L138.82,181l.94-.09.05.42-1.7.15-1.21.82-.28-.33Z"/><polygon class="cls-7" points="138.11 181.47 138.04 181.48 137.99 181.06 138.82 180.99 142.25 178.65 141.97 178.32 139.1 180.27 139.18 180.58 138.73 180.68 138.69 180.55 136.62 181.96 136.9 182.29 138.11 181.47"/><polygon class="cls-7" points="139.81 181.32 139.76 180.9 138.82 180.99 138.11 181.47 139.81 181.32"/><polygon class="cls-7" points="138.04 181.48 138.11 181.47 138.82 180.99 137.99 181.06 138.04 181.48"/><polygon class="cls-7" points="138.95 179.72 138.5 179.82 138.69 180.55 139.1 180.27 138.95 179.72"/><polygon class="cls-7" points="139.18 180.58 139.1 180.27 138.69 180.55 138.73 180.68 139.18 180.58"/><rect class="cls-8" x="168.55" y="179.38" width="5.9" height="2.13"/><rect class="cls-8" x="96.85" y="179.15" width="6.61" height="1.96"/><rect class="cls-8" x="78.19" y="183.3" width="2.3" height="2.36"/><rect class="cls-8" x="86.83" y="183.3" width="2.3" height="2.26"/><rect class="cls-8" x="80.56" y="192.48" width="3.34" height="1.26"/><rect class="cls-8" x="80.56" y="196.2" width="3.34" height="1.4"/><rect class="cls-8" x="80.56" y="200.06" width="3.34" height="1.5"/><rect class="cls-8" x="96.85" y="184.24" width="6.61" height="1.96"/><rect class="cls-8" x="96.85" y="189.29" width="6.61" height="1.99"/><rect class="cls-8" x="168.55" y="184.57" width="5.9" height="2.13"/><path class="cls-8" d="M45.51,181a45.82,45.82,0,0,1,4.72,2.76,19,19,0,0,0,1.26-3.35H45.92Z"/><path class="cls-8" d="M191.57,179.38v21.51h23.2V179.38Zm1.26,5.22h8.28v-1.3h-6.53v-2.12h6.53v-1.4h4v1.4H212v2.12h-6.83v1.3h8.35v2.19H192.83Zm11.92,14.19c-6.31,1.4-7.39,1.73-8,2.06a6,6,0,0,0-1-2A1.77,1.77,0,0,0,197,197v-1.19c-1,.33-2,.63-2.93.89a24,24,0,0,0-2.12-2.19,35.51,35.51,0,0,0,7.06-2h-4.23v-4.76h17.11v4.76h-8a19.19,19.19,0,0,1-3.75,2.06v2.82l4.64-1A10,10,0,0,0,204.75,198.79Zm6.46,1.1a65.8,65.8,0,0,0-8.87-5.78l2.67-1.33c1,.56,2.22,1.26,3.45,1.95,1-.62,2.11-1.33,2.82-1.89l2.59,1.54a25.43,25.43,0,0,1-3.12,1.76,36,36,0,0,1,3.28,2.25Z"/><rect class="cls-8" x="20.04" y="179.38" width="5.9" height="2.13"/><rect class="cls-8" x="20.04" y="184.57" width="5.9" height="2.13"/><rect class="cls-8" x="157.89" y="184.57" width="5.98" height="2.13"/><rect class="cls-8" x="198.4" y="189.42" width="9.58" height="1.36"/><rect class="cls-8" x="9.39" y="179.38" width="5.98" height="2.13"/><rect class="cls-8" x="157.89" y="179.38" width="5.98" height="2.13"/><rect class="cls-8" x="9.39" y="184.57" width="5.98" height="2.13"/><path class="cls-1" d="M23.27,195.57h11V192H20v-2H30.8v-13.9h-26V190H15.36v2H1.15v3.62h11l3.23,2v8H20v-8.18a38,38,0,0,0,12.29,7.08,16.38,16.38,0,0,1,3-3.36A37.9,37.9,0,0,1,23.27,195.57ZM20,179.38h5.9v2.13H20Zm0,5.19h5.9v2.12H20Zm-4.68,2.12h-6v-2.12h6Zm0-5.18h-6v-2.13h6Z"/><path class="cls-3" d="M15.36,197.6A36.37,36.37,0,0,1,3,204.71a21.28,21.28,0,0,0-3-3.29,34.59,34.59,0,0,0,12.13-5.85Z"/><path class="cls-1" d="M55.83,198.93a29.69,29.69,0,0,1,1.93,6.31l4.38-.76A30.86,30.86,0,0,0,60,198.29Z"/><path class="cls-1" d="M63.4,198.86a41.29,41.29,0,0,1,4.42,6.85L72,204a41.47,41.47,0,0,0-4.68-6.61Z"/><path class="cls-1" d="M71.75,184.8v-3.72H64.37c0-.57,0-1.1,0-1.63V175H60.21v4.35a14.39,14.39,0,0,1-.07,1.7H55.68c.3-.93.56-1.93.78-2.93l-2.75-.93-.77.1H47.81c.37-.7.75-1.36,1-2l-4.12-1.13a22.49,22.49,0,0,1-7.42,9.94A17.88,17.88,0,0,1,39,187.66a25.44,25.44,0,0,0,4.71-4.36,42.93,42.93,0,0,1,4.9,3.26,20.88,20.88,0,0,1-10.54,7.68,15.76,15.76,0,0,1,3.08,3,23.69,23.69,0,0,0,14.07-14.82v2.36H59.5c-1,3.42-3.19,7.21-8.31,10.37a18.87,18.87,0,0,1,3.34,2.53,19.52,19.52,0,0,0,8.54-10,54.79,54.79,0,0,1,5,9.14l4-1.63a62.18,62.18,0,0,0-6.27-10.4Zm-21.52-1A45.82,45.82,0,0,0,45.51,181l.41-.59h5.57A19,19,0,0,1,50.23,183.8Z"/><path class="cls-1" d="M37.31,204.18l4.19,1.56A41.25,41.25,0,0,0,46,198.66l-4.16-1A32.25,32.25,0,0,1,37.31,204.18Z"/><path class="cls-1" d="M48.33,199a38.12,38.12,0,0,1,.71,6.38l4.34-.56a34.87,34.87,0,0,0-1-6.22Z"/><path class="cls-1" d="M45.88,186.3c-2.82.66-5.53,1.32-7.46,1.72l.89,3,7-2.33Z"/><path class="cls-9" d="M71.83,179.24a24.13,24.13,0,0,0-3.49-4.32l-3.19,1.6a21.76,21.76,0,0,1,3.3,4.49Z"/><polygon class="cls-1" points="88.39 179.02 92.51 179.02 92.51 176.22 88.39 176.22 88.39 174.6 84.9 174.6 84.9 180.75 88.39 180.75 88.39 179.02"/><path class="cls-1" d="M106.13,197.93c-.07,3.82-.18,4.19-.74,4.19h-.78c-.41,0-.44-.1-.44-.9v-6.45h3.15V175.66H93.14v19.11h2.49c-.3,3-1.11,5.55-3.9,7.31v-.53H87.28v-1.49h4.16V197.6H87.28v-1.4h3.9v-2.46h-3.9v-1.26h4.64v-2.63h-4.6a9.28,9.28,0,0,0-1.19-2.26h-.56l-2.26.8a10.65,10.65,0,0,1,.78,1.46H80.9c.29-.56.55-1.09.81-1.66L80,187.62H78.82a22.72,22.72,0,0,1-4.46,6.52,25.83,25.83,0,0,1,1.71,2.72,12.8,12.8,0,0,0,1.37-1.56v10.34h3.12v-1.43H91.73V204a11.27,11.27,0,0,1,1.19,1.66c4.64-2.39,5.94-6.18,6.38-10.9h1.53v6.51c0,3,.55,4,3.23,4h1.78c2.19,0,3.08-1.2,3.34-6A10.05,10.05,0,0,1,106.13,197.93ZM83.9,201.55H80.56v-1.49H83.9Zm0-4H80.56v-1.4H83.9Zm0-3.86H80.56v-1.26H83.9Zm19.56-2.46H96.85v-2h6.61Zm0-5.08H96.85v-2h6.61Zm0-5.09H96.85v-2h6.61Z"/><polygon class="cls-1" points="79.22 180.75 82.64 180.75 82.64 174.6 79.22 174.6 79.22 176.26 74.55 176.26 74.55 179.05 79.22 179.05 79.22 180.75"/><path class="cls-5" d="M84.46,181.28v6.31h7.16v-6.31Zm4.67,4.28h-2.3V183.3h2.3Z"/><path class="cls-5" d="M75.81,181.31v6.31H83v-6.31Zm4.68,4.35h-2.3V183.3h2.3Z"/><path class="cls-4" d="M123.18,184l-4.31,1.53a36.22,36.22,0,0,0-3.82-8.21l4-1.36A33.44,33.44,0,0,1,123.18,184Z"/><path class="cls-1" d="M140.7,201.78h-3.42c-1.22,0-1.4-.2-1.4-1.36v-10h9.83v-3.73H131.09V174.56h-4.46v12.13H112.38v3.73h9.06c-.52,5.41-1.53,9.5-10,11.76a11.42,11.42,0,0,1,2.67,3.46c9.72-2.93,11.43-8.24,12.06-15.22h5.27v10c0,3.79,1,5.06,5.23,5.06h4.42c3.68,0,4.79-1.57,5.23-7.38a14.33,14.33,0,0,1-4-1.6C142.11,201.05,141.89,201.78,140.7,201.78Z"/><path class="cls-1" d="M171.78,195.57h10.95V192H168.55v-2h10.76v-13.9H153.26V190h10.61v2H149.66v3.62h11l3.23,2v8h4.68v-8.18a38,38,0,0,0,12.28,7.08,16.44,16.44,0,0,1,3-3.36A37.79,37.79,0,0,1,171.78,195.57Zm-3.23-16.19h5.9v2.13h-5.9Zm0,5.19h5.9v2.12h-5.9Zm-4.68,2.12h-6v-2.12h6Zm0-5.18h-6v-2.13h6Z"/><path class="cls-3" d="M163.87,197.6a36.37,36.37,0,0,1-12.36,7.11,20.87,20.87,0,0,0-3-3.29,34.64,34.64,0,0,0,12.14-5.85Z"/><polygon class="cls-1" points="213.47 184.6 205.12 184.6 205.12 183.31 211.95 183.31 211.95 181.18 205.12 181.18 205.12 179.78 201.11 179.78 201.11 181.18 194.58 181.18 194.58 183.31 201.11 183.31 201.11 184.6 192.83 184.6 192.83 186.79 213.47 186.79 213.47 184.6"/><path class="cls-1" d="M194,196.66c.93-.26,1.93-.56,2.93-.89V197a1.77,1.77,0,0,1-1.22,1.87,6,6,0,0,1,1,2c.63-.33,1.71-.66,8-2.06a10,10,0,0,1,0-2.39l-4.64,1v-2.82a19.19,19.19,0,0,0,3.75-2.06h8v-4.76H194.73v4.76H199a35.51,35.51,0,0,1-7.06,2A24,24,0,0,1,194,196.66Zm4.38-5.88v-1.36H208v1.36Z"/><path class="cls-1" d="M187.41,175.83v29.81h4.16v-1.2h23.2v1.2h4.3V175.83Zm27.36,25.06h-23.2V179.38h23.2Z"/><path class="cls-2" d="M214,198.39l-2.82,1.5a65.8,65.8,0,0,0-8.87-5.78l2.67-1.33c1,.56,2.22,1.26,3.45,1.95,1-.62,2.11-1.33,2.82-1.89l2.59,1.54a25.43,25.43,0,0,1-3.12,1.76A36,36,0,0,1,214,198.39Z"/></g></g></svg>