<svg xmlns="http://www.w3.org/2000/svg" viewBox="0 0 317.64 71.99"><defs><style>.cls-1{fill:#15933d;}.cls-2{fill:#e77114;}.cls-3{fill:#e88415;}.cls-4{fill:#e8bd3b;}.cls-5{fill:#005939;}.cls-6{fill:#94cd9f;}.cls-7{fill:#fff;}.cls-8{fill:none;}.cls-9{fill:#dfb73f;}</style></defs><g id="圖層_2" data-name="圖層 2"><g id="圖層_1-2" data-name="圖層 1"><path class="cls-1" d="M15.91,18.59,12,22.35C8.63,19.49,4.48,18.64,0,18.7v-2c.31-.9.62-1.81,1.06-3.13C6.45,13.83,11.65,15,15.91,18.59Z"/><path class="cls-1" d="M17.27,7.81a72.39,72.39,0,0,1-2.51,7.09c-4.88-4.8-4.29-11,1-14.9h1.13C18.78,2.53,17.89,5.23,17.27,7.81Z"/><path class="cls-2" d="M62.78,22.3a14.15,14.15,0,0,1-2-.2c-.62-.1-1.24-.26-1.87-.39-.08.29-.2.48-.14.58,2.42,4,1.5,5.08-3.61,5.51A61.27,61.27,0,0,0,42,30C36.26,31.84,34,36,36,41.12c1.69,4.3,4.53,8.24,6.94,12.3a32.88,32.88,0,0,0,2.37,3.12c-2.71-.06-5.44.08-8.11-.21A114.38,114.38,0,0,1,8.22,49c-.07-6.07-.58-12.16,0-18.18.26-2.9,2.49-5.66,3.83-8.48l3.9-3.76a46.73,46.73,0,0,0,4.26-3.29c8-7.83,17.94-8.74,28.69-6.26a27,27,0,0,1,14.57,8.13A12.15,12.15,0,0,1,65,19.26C66.22,21.42,65.49,22.39,62.78,22.3Z"/><path class="cls-3" d="M8.22,49a114.38,114.38,0,0,0,29,7.32c2.67.29,5.4.15,8.11.21l6.09-.92a13.66,13.66,0,0,1-1.29,1.54q-8.18,7.29-16.4,14.54C22.64,70.67,9.7,61.92,8.22,49Z"/><path class="cls-4" d="M33.71,71.7q8.2-7.26,16.4-14.54a13.66,13.66,0,0,0,1.29-1.54h-.08l1.14-.43,19.77-4.94C68.39,64.31,51.68,73.78,33.71,71.7Z"/><path class="cls-5" d="M67.57,29.85a3,3,0,0,1-6.07-.14,3,3,0,0,1,3.11-2.61A2.9,2.9,0,0,1,67.57,29.85Z"/><path class="cls-5" d="M59.38,33.49a3.37,3.37,0,0,1-6.7-.15,3.25,3.25,0,0,1,3.43-2.89A3.2,3.2,0,0,1,59.38,33.49Z"/><path class="cls-6" d="M52.46,55.2l-1.14.43Z"/><path class="cls-5" d="M232,32c1.86-1.29,5.14-6.7,5.14-6.7s-6.66,1.51-8.52,2.8S226,31.26,227,32.34,230.15,33.24,232,32Zm-1.84-2.46L230,28.7l.49-.11.16.6,3.13-2.13.3.36L230.31,30l1-.1,0,.46-1.85.16-1.31.89-.3-.36Z"/><polygon class="cls-7" points="229.53 30.49 229.46 30.5 229.41 30.05 230.31 29.96 234.04 27.43 233.74 27.06 230.61 29.19 230.7 29.53 230.21 29.63 230.17 29.49 227.91 31.02 228.22 31.38 229.53 30.49"/><polygon class="cls-7" points="231.38 30.33 231.33 29.87 230.31 29.96 229.53 30.49 231.38 30.33"/><polygon class="cls-7" points="229.46 30.5 229.53 30.49 230.31 29.96 229.41 30.05 229.46 30.5"/><polygon class="cls-7" points="230.45 28.59 229.96 28.7 230.17 29.49 230.61 29.19 230.45 28.59"/><polygon class="cls-7" points="230.7 29.53 230.61 29.19 230.17 29.49 230.21 29.63 230.7 29.53"/><rect class="cls-8" x="262.66" y="28.22" width="6.42" height="2.31"/><rect class="cls-8" x="184.64" y="27.97" width="7.19" height="2.13"/><rect class="cls-8" x="164.33" y="32.48" width="2.5" height="2.57"/><rect class="cls-8" x="173.73" y="32.48" width="2.5" height="2.46"/><rect class="cls-8" x="166.91" y="42.47" width="3.64" height="1.37"/><rect class="cls-8" x="166.91" y="46.52" width="3.64" height="1.52"/><rect class="cls-8" x="166.91" y="50.72" width="3.64" height="1.63"/><rect class="cls-8" x="184.64" y="33.5" width="7.19" height="2.13"/><rect class="cls-8" x="184.64" y="39" width="7.19" height="2.17"/><rect class="cls-8" x="262.66" y="33.86" width="6.42" height="2.31"/><path class="cls-8" d="M128.76,30a48.79,48.79,0,0,1,5.13,3,20.28,20.28,0,0,0,1.38-3.65h-6.06Z"/><path class="cls-8" d="M287.72,28.22v23.4H313V28.22Zm1.37,5.68h9V32.48H291V30.17h7.11V28.65h4.36v1.52h7.43v2.31h-7.43V33.9h9.09v2.38H289.09Zm13,15.44c-6.87,1.52-8,1.88-8.73,2.24a6.57,6.57,0,0,0-1.09-2.2,1.92,1.92,0,0,0,1.33-2v-1.3c-1.09.36-2.18.69-3.19,1a24.37,24.37,0,0,0-2.31-2.38,38.58,38.58,0,0,0,7.69-2.17h-4.61V37.29h18.62v5.18h-8.68A20.64,20.64,0,0,1,297,44.71v3.07l5.05-1A10.74,10.74,0,0,0,302.06,49.34Zm7,1.2a72,72,0,0,0-9.65-6.29l2.9-1.45c1.13.61,2.42,1.37,3.76,2.12a36.67,36.67,0,0,0,3.06-2.06L312,44.54a26.5,26.5,0,0,1-3.39,1.91,40.92,40.92,0,0,1,3.57,2.45Z"/><rect class="cls-8" x="101.04" y="28.22" width="6.42" height="2.31"/><rect class="cls-8" x="101.04" y="33.86" width="6.42" height="2.31"/><rect class="cls-8" x="251.07" y="33.86" width="6.5" height="2.31"/><rect class="cls-8" x="295.15" y="39.14" width="10.42" height="1.48"/><rect class="cls-8" x="89.45" y="28.22" width="6.5" height="2.31"/><rect class="cls-8" x="251.07" y="28.22" width="6.5" height="2.31"/><rect class="cls-8" x="89.45" y="33.86" width="6.5" height="2.31"/><path class="cls-1" d="M104.56,45.83h11.92V41.89H101V39.76h11.71V24.63H84.4V39.76H96v2.13H80.49v3.94h12L96,48v8.72H101v-8.9a41.37,41.37,0,0,0,13.38,7.7,17.77,17.77,0,0,1,3.22-3.65A41.34,41.34,0,0,1,104.56,45.83ZM101,28.22h6.42v2.31H101Zm0,5.64h6.42v2.31H101ZM96,36.17h-6.5V33.86H96Zm0-5.64h-6.5V28.22H96Z"/><path class="cls-3" d="M96,48A39.58,39.58,0,0,1,82.5,55.78a23.1,23.1,0,0,0-3.27-3.58,37.69,37.69,0,0,0,13.21-6.37Z"/><path class="cls-1" d="M140,49.49a32.17,32.17,0,0,1,2.1,6.87l4.77-.83a33.56,33.56,0,0,0-2.38-6.73Z"/><path class="cls-1" d="M148.23,49.41A45,45,0,0,1,153,56.86L157.57,55a46.33,46.33,0,0,0-5.09-7.2Z"/><path class="cls-1" d="M157.32,34.11V30.06h-8c0-.61,0-1.19,0-1.77V23.48h-4.56v4.74a14.71,14.71,0,0,1-.08,1.84h-4.85c.32-1,.61-2.09.85-3.18l-3-1-.85.11h-5.57c.4-.76.81-1.49,1.13-2.21l-4.48-1.23a24.55,24.55,0,0,1-8.08,10.81,19.9,19.9,0,0,1,1.86,3.87,28.2,28.2,0,0,0,5.13-4.73A46.49,46.49,0,0,1,132.16,36a22.81,22.81,0,0,1-11.47,8.36A16.87,16.87,0,0,1,124,47.68a25.84,25.84,0,0,0,15.31-16.13v2.56H144c-1.05,3.73-3.47,7.85-9.05,11.29a20.28,20.28,0,0,1,3.64,2.75c5.13-3.19,7.92-7.06,9.29-10.89a58.83,58.83,0,0,1,5.41,10l4.32-1.78a68.54,68.54,0,0,0-6.82-11.32ZM133.89,33a48.79,48.79,0,0,0-5.13-3l.45-.65h6.06A20.28,20.28,0,0,1,133.89,33Z"/><path class="cls-1" d="M119.84,55.2l4.56,1.7a45.11,45.11,0,0,0,4.93-7.7l-4.52-1.05A35.54,35.54,0,0,1,119.84,55.2Z"/><path class="cls-1" d="M131.83,49.56a41,41,0,0,1,.77,6.94l4.73-.61a37.86,37.86,0,0,0-1.05-6.77Z"/><path class="cls-1" d="M129.17,35.74c-3.07.72-6,1.45-8.12,1.88l1,3.29,7.63-2.53Z"/><path class="cls-9" d="M157.41,28.07a26.24,26.24,0,0,0-3.81-4.71l-3.47,1.75A23.22,23.22,0,0,1,153.72,30Z"/><polygon class="cls-1" points="175.43 27.82 179.91 27.82 179.91 24.78 175.43 24.78 175.43 23.01 171.63 23.01 171.63 29.7 175.43 29.7 175.43 27.82"/><path class="cls-1" d="M194.73,48.4c-.07,4.16-.19,4.56-.8,4.56h-.85c-.45,0-.48-.11-.48-1V45H196V24.17H180.6V45h2.71c-.33,3.3-1.21,6-4.25,8v-.58h-4.84V50.72h4.53V48h-4.53V46.52h4.24V43.84h-4.24V42.47h5.05V39.61h-5A10,10,0,0,0,173,37.15h-.61L169.9,38a12.63,12.63,0,0,1,.85,1.59h-3.47c.31-.61.59-1.19.88-1.81l-1.86-.62H165a24.56,24.56,0,0,1-4.85,7.1,29.87,29.87,0,0,1,1.86,3,14.35,14.35,0,0,0,1.49-1.7V56.79h3.4V55.24h12.15V55a13.19,13.19,0,0,1,1.3,1.81c5-2.61,6.46-6.73,6.94-11.87H189v7.09c0,3.22.59,4.31,3.51,4.31h1.94c2.38,0,3.35-1.31,3.63-6.55A11.12,11.12,0,0,1,194.73,48.4Zm-24.19,3.94h-3.63V50.72h3.63Zm0-4.3h-3.63V46.52h3.63Zm0-4.2h-3.63V42.47h3.63Zm21.29-2.67h-7.2V39h7.2Zm0-5.53h-7.2V33.5h7.2Zm0-5.54h-7.2V28h7.2Z"/><polygon class="cls-1" points="165.45 29.7 169.17 29.7 169.17 23.01 165.45 23.01 165.45 24.82 160.36 24.82 160.36 27.86 165.45 27.86 165.45 29.7"/><path class="cls-5" d="M171.15,30.28v6.87h7.79V30.28Zm5.08,4.66h-2.5V32.48h2.5Z"/><path class="cls-5" d="M161.74,30.32v6.86h7.83V30.32Zm5.09,4.73h-2.5V32.48h2.5Z"/><path class="cls-4" d="M213.29,33.24l-4.69,1.67A39.75,39.75,0,0,0,204.44,26l4.32-1.48A36.47,36.47,0,0,1,213.29,33.24Z"/><path class="cls-1" d="M232.35,52.6h-3.71c-1.33,0-1.54-.22-1.54-1.49V40.23h10.71V36.17H221.89V23H217v13.2H201.53v4.06h9.86c-.56,5.89-1.66,10.34-10.91,12.8a12.11,12.11,0,0,1,2.91,3.76c10.59-3.18,12.44-9,13.13-16.56h5.74V51.15c0,4.12,1.13,5.5,5.69,5.5h4.81c4,0,5.21-1.7,5.69-8a15.55,15.55,0,0,1-4.4-1.74C233.89,51.8,233.65,52.6,232.35,52.6Z"/><path class="cls-1" d="M266.18,45.83h11.91V41.89H262.66V39.76h11.71V24.63H246V39.76h11.55v2.13H242.11v3.94h11.94L257.57,48v8.72h5.09v-8.9A41.43,41.43,0,0,0,276,55.56a17.82,17.82,0,0,1,3.23-3.65A41.24,41.24,0,0,1,266.18,45.83Zm-3.52-17.61h6.42v2.31h-6.42Zm0,5.64h6.42v2.31h-6.42Zm-5.09,2.31h-6.51V33.86h6.51Zm0-5.64h-6.51V28.22h6.51Z"/><path class="cls-3" d="M257.57,48a39.58,39.58,0,0,1-13.45,7.74,22.69,22.69,0,0,0-3.28-3.58,37.61,37.61,0,0,0,13.21-6.37Z"/><polygon class="cls-1" points="311.55 33.9 302.46 33.9 302.46 32.49 309.89 32.49 309.89 30.17 302.46 30.17 302.46 28.65 298.1 28.65 298.1 30.17 290.99 30.17 290.99 32.49 298.1 32.49 298.1 33.9 289.09 33.9 289.09 36.28 311.55 36.28 311.55 33.9"/><path class="cls-1" d="M290.38,47c1-.29,2.1-.62,3.19-1v1.3a1.91,1.91,0,0,1-1.33,2,6.48,6.48,0,0,1,1.09,2.2c.69-.36,1.86-.72,8.72-2.24a11.27,11.27,0,0,1,0-2.6l-5,1V44.71a20.93,20.93,0,0,0,4.08-2.24h8.68V37.3H291.15v5.17h4.6a38.58,38.58,0,0,1-7.67,2.17A24.24,24.24,0,0,1,290.38,47Zm4.77-6.41V39.14h10.42v1.48Z"/><path class="cls-1" d="M283.19,24.35V56.79h4.53v-1.3H313v1.3h4.68V24.35ZM313,51.62H287.72V28.22H313Z"/><path class="cls-2" d="M312.16,48.9l-3.07,1.64a72,72,0,0,0-9.65-6.29l2.9-1.45c1.13.61,2.42,1.37,3.76,2.12a36.67,36.67,0,0,0,3.06-2.06L312,44.54a26.5,26.5,0,0,1-3.39,1.91A40.92,40.92,0,0,1,312.16,48.9Z"/></g></g></svg>