<svg width="55" height="55" viewBox="0 0 55 55" fill="none" xmlns="http://www.w3.org/2000/svg">
<path d="M38.9583 48.125C41.4896 48.125 43.5417 46.073 43.5417 43.5417C43.5417 41.0104 41.4896 38.9583 38.9583 38.9583C36.427 38.9583 34.375 41.0104 34.375 43.5417C34.375 46.073 36.427 48.125 38.9583 48.125Z" stroke="#005B3A" stroke-width="3" stroke-linecap="round" stroke-linejoin="round"/>
<path d="M18.3333 48.125C20.8646 48.125 22.9167 46.073 22.9167 43.5417C22.9167 41.0104 20.8646 38.9583 18.3333 38.9583C15.802 38.9583 13.75 41.0104 13.75 43.5417C13.75 46.073 15.802 48.125 18.3333 48.125Z" stroke="#005B3A" stroke-width="3" stroke-linecap="round" stroke-linejoin="round"/>
<path d="M6.875 6.875H9.60571C10.6863 6.875 11.6201 7.62988 11.8465 8.6865L17.9452 37.1468C18.1716 38.2035 19.1053 38.9583 20.186 38.9583H38.9583" stroke="#005B3A" stroke-width="3" stroke-linecap="round" stroke-linejoin="round"/>
<path d="M13.75 13.75H45.0788C46.6038 13.75 47.7034 15.2116 47.2807 16.6768L43.3144 30.4268C43.0314 31.4079 42.1335 32.0833 41.1125 32.0833H17.7163" stroke="#005B3A" stroke-width="3" stroke-linecap="round" stroke-linejoin="round"/>
</svg>
