<svg width="55" height="55" viewBox="0 0 55 55" fill="none" xmlns="http://www.w3.org/2000/svg">
<path d="M27.5 48.125C38.8909 48.125 48.125 38.8909 48.125 27.5C48.125 16.1091 38.8909 6.875 27.5 6.875C16.1091 6.875 6.875 16.1091 6.875 27.5C6.875 38.8909 16.1091 48.125 27.5 48.125Z" stroke="#005B3A" stroke-width="3" stroke-linecap="round" stroke-linejoin="round"/>
<path d="M39.4544 44.3031C36.5172 41.0227 32.2495 38.9583 27.4997 38.9583C22.7498 38.9583 18.4821 41.0227 15.5449 44.3031" stroke="#005B3A" stroke-width="3" stroke-linecap="round" stroke-linejoin="round"/>
<path d="M27.5 32.0833C31.297 32.0833 34.375 29.0053 34.375 25.2083C34.375 21.4114 31.297 18.3333 27.5 18.3333C23.703 18.3333 20.625 21.4114 20.625 25.2083C20.625 29.0053 23.703 32.0833 27.5 32.0833Z" stroke="#005B3A" stroke-width="3" stroke-linecap="round" stroke-linejoin="round"/>
</svg>
