<svg width="40" height="40" viewBox="0 0 40 40" fill="none" xmlns="http://www.w3.org/2000/svg">
<path d="M23.3335 16.6666L23.3335 28.3333" stroke="black" stroke-width="2" stroke-linecap="round" stroke-linejoin="round"/>
<path d="M16.6665 16.6666L16.6665 28.3333" stroke="black" stroke-width="2" stroke-linecap="round" stroke-linejoin="round"/>
<path d="M10 10V9C9.44772 9 9 9.44772 9 10H10ZM30 10H31C31 9.44772 30.5523 9 30 9V10ZM10 11H30V9H10V11ZM29 10V33.3333H31V10H29ZM28.3333 34H11.6667V36H28.3333V34ZM11 33.3333V10H9V33.3333H11ZM11.6667 34C11.2985 34 11 33.7015 11 33.3333H9C9 34.8061 10.1939 36 11.6667 36V34ZM29 33.3333C29 33.7015 28.7015 34 28.3333 34V36C29.8061 36 31 34.8061 31 33.3333H29Z" fill="black"/>
<path d="M6.6665 10H33.3332" stroke="black" stroke-width="2" stroke-linecap="round" stroke-linejoin="round"/>
<path d="M26.6668 10V11C27.2191 11 27.6668 10.5523 27.6668 10H26.6668ZM13.3335 10H12.3335C12.3335 10.5523 12.7812 11 13.3335 11V10ZM15.0002 6H25.0002V4H15.0002V6ZM25.6668 6.66667V10H27.6668V6.66667H25.6668ZM26.6668 9H13.3335V11H26.6668V9ZM14.3335 10V6.66667H12.3335V10H14.3335ZM25.0002 6C25.3684 6 25.6668 6.29848 25.6668 6.66667H27.6668C27.6668 5.19391 26.4729 4 25.0002 4V6ZM15.0002 4C13.5274 4 12.3335 5.19391 12.3335 6.66667H14.3335C14.3335 6.29848 14.632 6 15.0002 6V4Z" fill="black"/>
</svg>
