<svg width="53" height="53" viewBox="0 0 53 53" fill="none" xmlns="http://www.w3.org/2000/svg">
<path d="M37.5417 46.375C39.9809 46.375 41.9583 44.3976 41.9583 41.9583C41.9583 39.5191 39.9809 37.5417 37.5417 37.5417C35.1024 37.5417 33.125 39.5191 33.125 41.9583C33.125 44.3976 35.1024 46.375 37.5417 46.375Z" stroke="#005B3A" stroke-width="3" stroke-linecap="round" stroke-linejoin="round"/>
<path d="M17.6667 46.375C20.1059 46.375 22.0833 44.3976 22.0833 41.9583C22.0833 39.5191 20.1059 37.5417 17.6667 37.5417C15.2274 37.5417 13.25 39.5191 13.25 41.9583C13.25 44.3976 15.2274 46.375 17.6667 46.375Z" stroke="#005B3A" stroke-width="3" stroke-linecap="round" stroke-linejoin="round"/>
<path d="M6.625 6.625H9.25642C10.2977 6.625 11.1975 7.35243 11.4157 8.37062L17.2926 35.796C17.5108 36.8142 18.4106 37.5417 19.4519 37.5417H37.5417" stroke="#005B3A" stroke-width="3" stroke-linecap="round" stroke-linejoin="round"/>
<path d="M13.25 13.25H43.4396C44.9091 13.25 45.9687 14.6585 45.5614 16.0704L41.7393 29.3204C41.4666 30.2658 40.6014 30.9167 39.6175 30.9167H17.0721" stroke="#005B3A" stroke-width="3" stroke-linecap="round" stroke-linejoin="round"/>
</svg>
