<svg width="58" height="55" viewBox="0 0 58 55" fill="none" xmlns="http://www.w3.org/2000/svg">
<path d="M29 47.2907C41.0122 47.2907 50.75 38.2166 50.75 27.0233C50.75 15.8299 41.0122 6.75581 29 6.75581C16.9878 6.75581 7.25 15.8299 7.25 27.0233C7.25 38.2166 16.9878 47.2907 29 47.2907Z" stroke="#005B3A" stroke-width="3" stroke-linecap="round" stroke-linejoin="round"/>
<path d="M41.6065 43.5351C38.509 40.3115 34.0085 38.2829 28.9996 38.2829C23.9907 38.2829 19.4902 40.3115 16.3928 43.5351" stroke="#005B3A" stroke-width="3" stroke-linecap="round" stroke-linejoin="round"/>
<path d="M29 31.5271C33.0041 31.5271 36.25 28.5024 36.25 24.7713C36.25 21.0402 33.0041 18.0155 29 18.0155C24.9959 18.0155 21.75 21.0402 21.75 24.7713C21.75 28.5024 24.9959 31.5271 29 31.5271Z" stroke="#005B3A" stroke-width="3" stroke-linecap="round" stroke-linejoin="round"/>
</svg>
