<svg xmlns="http://www.w3.org/2000/svg" viewBox="0 0 460.9 135.33"><defs><style>.cls-1{fill:#15933d;}.cls-2{fill:#e77114;}.cls-3{fill:#e88415;}.cls-4{fill:#e8bd3b;}.cls-5{fill:#005939;}.cls-6{fill:#94cd9f;}.cls-7{fill:#fff;}.cls-8{fill:none;}.cls-9{fill:#dfb73f;}</style></defs><g id="圖層_2" data-name="圖層 2"><g id="圖層_1-2" data-name="圖層 1"><path class="cls-1" d="M29.91,34.94,22.58,42c-6.35-5.37-14.15-7-22.58-6.86v-3.8C.58,29.66,1.16,28,2,25.48,12.12,26,21.9,28.15,29.91,34.94Z"/><path class="cls-1" d="M32.46,14.67c-1.07,4.4-3,8.62-4.71,13.34-9.17-9-8.06-20.62,1.93-28H31.8C35.3,4.77,33.63,9.82,32.46,14.67Z"/><path class="cls-2" d="M118,41.93a28.19,28.19,0,0,1-3.67-.39c-1.18-.18-2.33-.47-3.52-.72-.14.55-.37.9-.26,1.08,4.55,7.49,2.82,9.55-6.79,10.37C95.43,53,86.86,54,79,56.44,68.17,59.86,63.87,67.62,67.68,77.31c3.18,8.07,8.52,15.48,13,23.11a64.4,64.4,0,0,0,4.46,5.87c-5.09-.11-10.23.15-15.25-.39-18.94-2-37-7-54.48-13.77-.13-11.4-1.08-22.86-.06-34.18.48-5.45,4.68-10.63,7.19-15.94l7.33-7.07c2.68-2,5.64-3.87,8-6.18C53,14,71.64,12.34,91.86,17c10.82,2.49,20.27,7.31,27.38,15.28a23.06,23.06,0,0,1,3,3.93C124.48,40.26,123.12,42.1,118,41.93Z"/><path class="cls-3" d="M15.46,92.13C32.94,98.86,51,103.86,69.93,105.9c5,.54,10.16.28,15.25.38l11.44-1.72a24.88,24.88,0,0,1-2.41,2.9q-15.37,13.7-30.83,27.33C42.57,132.86,18.24,116.4,15.46,92.13Z"/><path class="cls-4" d="M63.38,134.79q15.42-13.65,30.83-27.33a24.88,24.88,0,0,0,2.41-2.9l-.14,0,2.14-.8,37.18-9.3C128.56,120.91,97.16,138.7,63.38,134.79Z"/><path class="cls-5" d="M127,56.11a5.47,5.47,0,0,1-5.66,5.06c-3.23,0-5.89-2.45-5.74-5.31A5.53,5.53,0,0,1,121.46,51C124.56,51,127.07,53.36,127,56.11Z"/><path class="cls-5" d="M111.64,63c0,3.07-2.86,5.59-6.26,5.6-3.57,0-6.51-2.71-6.35-5.87s3.07-5.52,6.46-5.43S111.69,59.91,111.64,63Z"/><path class="cls-6" d="M98.62,103.78l-2.14.8Z"/><path class="cls-5" d="M351.56,68.87c2.37-1.65,6.57-8.56,6.57-8.56s-8.51,1.93-10.89,3.58-3.33,4.1-2.14,5.48S349.18,70.52,351.56,68.87Zm-2.35-3.15-.27-1,.63-.13.2.76,4-2.71.4.46-4.77,3.24,1.3-.11.07.57L348.4,67l-1.68,1.14-.39-.47Z"/><polygon class="cls-7" points="348.4 67.01 348.3 67.02 348.24 66.44 349.39 66.33 354.16 63.09 353.76 62.63 349.77 65.34 349.89 65.77 349.26 65.91 349.21 65.72 346.33 67.68 346.72 68.15 348.4 67.01"/><polygon class="cls-7" points="350.76 66.79 350.69 66.22 349.39 66.33 348.4 67.01 350.76 66.79"/><polygon class="cls-7" points="348.3 67.02 348.4 67.01 349.39 66.33 348.24 66.44 348.3 67.02"/><polygon class="cls-7" points="349.57 64.58 348.94 64.71 349.21 65.72 349.77 65.34 349.57 64.58"/><polygon class="cls-7" points="349.89 65.77 349.77 65.34 349.21 65.72 349.26 65.91 349.89 65.77"/><rect class="cls-8" x="390.7" y="64.1" width="8.2" height="2.96"/><rect class="cls-8" x="291.07" y="63.78" width="9.18" height="2.73"/><rect class="cls-8" x="265.13" y="69.55" width="3.2" height="3.28"/><rect class="cls-8" x="277.14" y="69.55" width="3.2" height="3.14"/><rect class="cls-8" x="268.43" y="82.3" width="4.64" height="1.75"/><rect class="cls-8" x="268.43" y="87.47" width="4.64" height="1.94"/><rect class="cls-8" x="268.43" y="92.83" width="4.64" height="2.08"/><rect class="cls-8" x="291.07" y="70.85" width="9.18" height="2.73"/><rect class="cls-8" x="291.07" y="77.87" width="9.18" height="2.77"/><rect class="cls-8" x="390.7" y="71.31" width="8.2" height="2.96"/><path class="cls-8" d="M219.72,66.41a64.2,64.2,0,0,1,6.55,3.83A25.54,25.54,0,0,0,228,65.58h-7.74Z"/><path class="cls-8" d="M422.69,64.1V94h32.24V64.1Zm1.75,7.25h11.5v-1.8h-9.07v-3h9.07V64.66h5.58V66.6H451v3h-9.49v1.8h11.6V74.4H424.44ZM441,91.07c-8.77,2-10.27,2.41-11.14,2.86a8.35,8.35,0,0,0-1.39-2.8,2.47,2.47,0,0,0,1.69-2.6V86.88c-1.39.45-2.77.87-4.07,1.23a34.51,34.51,0,0,0-2.94-3A49.23,49.23,0,0,0,433,82.3h-5.88V75.69h23.78V82.3H439.77a27.21,27.21,0,0,1-5.21,2.87v3.91L441,87.75A14.14,14.14,0,0,0,441,91.07Zm9,1.53a90.26,90.26,0,0,0-12.33-8l3.71-1.85c1.45.78,3.09,1.75,4.8,2.71,1.39-.86,2.93-1.85,3.92-2.63l3.6,2.14a35,35,0,0,1-4.34,2.45,49.73,49.73,0,0,1,4.56,3.13Z"/><rect class="cls-8" x="184.33" y="64.1" width="8.2" height="2.96"/><rect class="cls-8" x="184.33" y="71.31" width="8.2" height="2.96"/><rect class="cls-8" x="375.89" y="71.31" width="8.3" height="2.96"/><rect class="cls-8" x="432.18" y="78.05" width="13.31" height="1.89"/><rect class="cls-8" x="169.52" y="64.1" width="8.3" height="2.96"/><rect class="cls-8" x="375.89" y="64.1" width="8.3" height="2.96"/><rect class="cls-8" x="169.52" y="71.31" width="8.3" height="2.96"/><path class="cls-1" d="M188.82,86.6H204v-5h-19.7V78.84h14.95V59.53h-36.2V78.84h14.74v2.73H158.08v5h15.26l4.48,2.82v11.13h6.51V89.18A52.7,52.7,0,0,0,201.41,99a22.52,22.52,0,0,1,4.11-4.67A52.46,52.46,0,0,1,188.82,86.6Zm-4.49-22.5h8.2v3h-8.2Zm0,7.21h8.2v3h-8.2Zm-6.51,3h-8.29v-3h8.29Zm0-7.2h-8.29v-3h8.29Z"/><path class="cls-3" d="M177.82,89.42a50.44,50.44,0,0,1-17.17,9.88,29.45,29.45,0,0,0-4.17-4.57,48.29,48.29,0,0,0,16.86-8.13Z"/><path class="cls-1" d="M234.06,91.26a41.2,41.2,0,0,1,2.68,8.78L242.83,99a43.08,43.08,0,0,0-3-8.59Z"/><path class="cls-1" d="M244.59,91.17a56.7,56.7,0,0,1,6.13,9.51l5.78-2.35a58.65,58.65,0,0,0-6.5-9.2Z"/><path class="cls-1" d="M256.19,71.63V66.46H245.93c0-.79,0-1.53,0-2.26V58.05h-5.83v6a19.35,19.35,0,0,1-.1,2.36h-6.19c.41-1.29.77-2.68,1.08-4.07l-3.82-1.29-1.08.14h-7.12c.52-1,1-1.89,1.45-2.82l-5.73-1.57a31.29,31.29,0,0,1-10.31,13.81,24.56,24.56,0,0,1,2.37,4.94,35.21,35.21,0,0,0,6.55-6,60,60,0,0,1,6.81,4.53,29.08,29.08,0,0,1-14.65,10.67,21.87,21.87,0,0,1,4.28,4.2c8.82-3.46,15.78-10,19.55-20.6v3.28h5.93c-1.34,4.76-4.44,10-11.55,14.41a26.73,26.73,0,0,1,4.64,3.51c6.55-4.06,10.11-9,11.86-13.9A75,75,0,0,1,251,88.35l5.52-2.26c-1.6-3.88-5.31-9.7-8.72-14.46Zm-29.92-1.39a64.2,64.2,0,0,0-6.55-3.83l.57-.83H228A25.54,25.54,0,0,1,226.27,70.24Z"/><path class="cls-1" d="M208.33,98.56l5.82,2.17a57.37,57.37,0,0,0,6.3-9.84l-5.78-1.34A44.81,44.81,0,0,1,208.33,98.56Z"/><path class="cls-1" d="M223.64,91.35a53.06,53.06,0,0,1,1,8.87l6-.79a47.55,47.55,0,0,0-1.34-8.63Z"/><path class="cls-1" d="M220.24,73.71c-3.92.92-7.68,1.85-10.37,2.4l1.24,4.2,9.75-3.23Z"/><path class="cls-9" d="M256.3,63.91a33,33,0,0,0-4.86-6L247,60.13a30.11,30.11,0,0,1,4.59,6.23Z"/><polygon class="cls-1" points="279.31 63.59 285.04 63.59 285.04 59.72 279.31 59.72 279.31 57.45 274.46 57.45 274.46 66 279.31 66 279.31 63.59"/><path class="cls-1" d="M304,89.88c-.1,5.31-.25,5.82-1,5.82h-1.08c-.57,0-.61-.14-.61-1.25v-9h4.37V58.93h-19.7V85.49h3.46C289,89.7,287.83,93.2,284,95.64v-.73h-6.18V92.84h5.78V89.42h-5.78v-2h5.41V84.05h-5.41V82.3h6.44V78.65h-6.39a13,13,0,0,0-1.65-3.14h-.78l-3.14,1.11a15,15,0,0,1,1.08,2H268.9c.4-.78.76-1.52,1.13-2.31l-2.38-.79H266a31.58,31.58,0,0,1-6.2,9.06,37.05,37.05,0,0,1,2.38,3.78,17.53,17.53,0,0,0,1.9-2.17v14.37h4.34v-2H284v-.27a15.41,15.41,0,0,1,1.65,2.3c6.45-3.32,8.26-8.59,8.87-15.14h2.12v9c0,4.12.77,5.5,4.49,5.5h2.48c3,0,4.28-1.66,4.64-8.36A14.08,14.08,0,0,1,304,89.88Zm-30.89,5h-4.64V92.84h4.64Zm0-5.49h-4.64v-2h4.64Zm0-5.37h-4.64V82.3h4.64Zm27.18-3.41h-9.19V77.87h9.19Zm0-7.06h-9.19V70.85h9.19Zm0-7.08h-9.19V63.78h9.19Z"/><polygon class="cls-1" points="266.57 66 271.32 66 271.32 57.45 266.57 57.45 266.57 59.76 260.07 59.76 260.07 63.64 266.57 63.64 266.57 66"/><path class="cls-5" d="M273.85,66.74v8.77h9.95V66.74Zm6.49,6h-3.2V69.55h3.2Z"/><path class="cls-5" d="M261.83,66.78v8.77h10V66.78Zm6.5,6h-3.2V69.55h3.2Z"/><path class="cls-4" d="M327.65,70.52l-6,2.13a49.63,49.63,0,0,0-5.31-11.41l5.52-1.89C324.19,62.81,326.78,67.38,327.65,70.52Z"/><path class="cls-1" d="M352,95.23h-4.75c-1.7,0-2-.28-2-1.89V79.44H359V74.26H338.64V57.41h-6.19V74.26H312.64v5.18h12.59c-.72,7.52-2.12,13.2-13.93,16.35a15.33,15.33,0,0,1,3.72,4.8c13.51-4.07,15.88-11.46,16.76-21.15h7.32V93.38c0,5.27,1.45,7,7.28,7h6.14c5.1,0,6.65-2.17,7.27-10.25a20,20,0,0,1-5.63-2.22C354,94.22,353.65,95.23,352,95.23Z"/><path class="cls-1" d="M395.19,86.6H410.4v-5H390.7V78.84h14.95V59.53h-36.2V78.84H384.2v2.73H364.45v5h15.26l4.49,2.82v11.13h6.5V89.18A52.82,52.82,0,0,0,407.76,99a22.93,22.93,0,0,1,4.13-4.67A52.36,52.36,0,0,1,395.19,86.6ZM390.7,64.1h8.2v3h-8.2Zm0,7.21h8.2v3h-8.2Zm-6.5,3h-8.31v-3h8.31Zm0-7.2h-8.31v-3h8.31Z"/><path class="cls-3" d="M384.2,89.42A50.58,50.58,0,0,1,367,99.3a29,29,0,0,0-4.18-4.57,48.33,48.33,0,0,0,16.87-8.13Z"/><polygon class="cls-1" points="453.12 71.35 441.51 71.35 441.51 69.55 451 69.55 451 66.6 441.51 66.6 441.51 64.66 435.94 64.66 435.94 66.6 426.87 66.6 426.87 69.55 435.94 69.55 435.94 71.35 424.44 71.35 424.44 74.4 453.12 74.4 453.12 71.35"/><path class="cls-1" d="M426.09,88.12c1.29-.37,2.68-.79,4.08-1.25v1.66a2.43,2.43,0,0,1-1.71,2.59,8.38,8.38,0,0,1,1.4,2.82c.87-.46,2.37-.93,11.14-2.87a14.14,14.14,0,0,1,0-3.32l-6.45,1.34V85.16a26.09,26.09,0,0,0,5.21-2.86h11.09V75.7H427.07v6.6H433a49.13,49.13,0,0,1-9.8,2.77A32,32,0,0,1,426.09,88.12Zm6.09-8.18V78.05h13.31v1.89Z"/><path class="cls-1" d="M416.91,59.17v41.42h5.78V98.92h32.24v1.67h6V59.17Zm38,34.82H422.69V64.1h32.24Z"/><path class="cls-2" d="M453.9,90.52,450,92.6a90.26,90.26,0,0,0-12.33-8l3.71-1.85c1.45.78,3.09,1.75,4.8,2.71,1.39-.86,2.93-1.85,3.92-2.63l3.6,2.14a35,35,0,0,1-4.34,2.45A49.73,49.73,0,0,1,453.9,90.52Z"/></g></g></svg>