<svg xmlns="http://www.w3.org/2000/svg" viewBox="0 0 397 397"><defs><style>.cls-1{fill:#fff;}</style></defs><g id="圖層_2" data-name="圖層 2"><g id="_2" data-name="2"><path class="cls-1" d="M339.83,0H57.17A57.17,57.17,0,0,0,0,57.17V339.83A57.17,57.17,0,0,0,57.17,397H339.83A57.17,57.17,0,0,0,397,339.83V57.17A57.17,57.17,0,0,0,339.83,0ZM269.7,106.92H243.88c-20.23,0-24.15,9.62-24.15,23.73v31.12H268l-6.29,48.74h-42V335.6H169.39V210.52H127.3V161.78h42.09V125.83c0-41.71,25.48-64.43,62.69-64.43a346.48,346.48,0,0,1,37.62,1.92v43.6Z"/></g></g></svg>