<svg xmlns="http://www.w3.org/2000/svg" viewBox="0 0 575.58 169"><defs><style>.cls-1{fill:#15933d;}.cls-2{fill:#e77114;}.cls-3{fill:#e88415;}.cls-4{fill:#e8bd3b;}.cls-5{fill:#005939;}.cls-6{fill:#94cd9f;}.cls-7{fill:#fff;}.cls-8{fill:none;}.cls-9{fill:#dfb73f;}</style></defs><g id="圖層_2" data-name="圖層 2"><g id="圖層_1-2" data-name="圖層 1"><path class="cls-1" d="M37.35,43.64l-9.16,8.83C20.26,45.75,10.53,43.77,0,43.9V39.15C.72,37,1.45,34.92,2.49,31.82,15.14,32.48,27.35,35.15,37.35,43.64Z"/><path class="cls-1" d="M40.53,18.32C39.2,23.81,36.78,29.08,34.66,35,23.21,23.71,24.59,9.23,37.07,0h2.65C44.09,6,42,12.27,40.53,18.32Z"/><path class="cls-2" d="M147.38,52.36a37,37,0,0,1-4.59-.48c-1.47-.23-2.92-.6-4.39-.9-.18.68-.47,1.12-.34,1.34,5.69,9.36,3.53,11.93-8.47,12.95-10.42.87-21.11,2.14-30.9,5.22-13.56,4.26-18.93,14-14.17,26.05,4,10.08,10.64,19.33,16.29,28.87a77.57,77.57,0,0,0,5.56,7.32c-6.36-.14-12.77.19-19.05-.48-23.64-2.55-46.18-8.79-68-17.19-.17-14.24-1.35-28.55-.09-42.69.61-6.81,5.85-13.28,9-19.9l9.16-8.83c3.35-2.56,7-4.84,10-7.73,18.84-18.37,42.11-20.5,67.36-14.69,13.51,3.11,25.32,9.12,34.2,19.08a28.35,28.35,0,0,1,3.68,4.91C155.45,50.28,153.76,52.57,147.38,52.36Z"/><path class="cls-3" d="M19.3,115.06c21.84,8.39,44.37,14.65,68,17.19,6.27.67,12.69.34,19,.48l14.29-2.15a30.74,30.74,0,0,1-3,3.62q-19.2,17.1-38.5,34.13C53.16,165.91,22.78,145.36,19.3,115.06Z"/><path class="cls-4" d="M79.15,168.33q19.26-17.06,38.5-34.13a30.74,30.74,0,0,0,3-3.62l-.17,0,2.67-1L169.58,118C160.55,151,121.33,173.21,79.15,168.33Z"/><path class="cls-5" d="M158.63,70.07c-.06,3.47-3.24,6.31-7.07,6.32-4,0-7.36-3.06-7.17-6.64s3.47-6.22,7.29-6.12S158.68,66.63,158.63,70.07Z"/><path class="cls-5" d="M139.41,78.62c0,3.83-3.57,7-7.81,7-4.47,0-8.13-3.39-7.93-7.34s3.83-6.89,8.06-6.78S139.48,74.81,139.41,78.62Z"/><path class="cls-6" d="M123.16,129.6l-2.67,1Z"/><path class="cls-5" d="M439,86c3-2.06,8.2-10.68,8.2-10.68s-10.63,2.41-13.59,4.47-4.16,5.12-2.68,6.84S436.06,88.06,439,86Zm-2.93-3.92-.34-1.27.78-.17.26,1,5-3.39.49.58-5.95,4,1.63-.15.08.72-2.95.27L433,85.1l-.49-.58Z"/><polygon class="cls-7" points="435.08 83.68 434.96 83.69 434.88 82.97 436.31 82.84 442.27 78.79 441.78 78.21 436.8 81.6 436.94 82.14 436.16 82.31 436.1 82.08 432.5 84.52 432.99 85.1 435.08 83.68"/><polygon class="cls-7" points="438.03 83.41 437.95 82.69 436.31 82.84 435.08 83.68 438.03 83.41"/><polygon class="cls-7" points="434.96 83.69 435.08 83.68 436.31 82.84 434.88 82.97 434.96 83.69"/><polygon class="cls-7" points="436.55 80.64 435.76 80.81 436.1 82.08 436.8 81.6 436.55 80.64"/><polygon class="cls-7" points="436.94 82.14 436.8 81.6 436.1 82.08 436.16 82.31 436.94 82.14"/><rect class="cls-8" x="487.9" y="80.05" width="10.24" height="3.69"/><rect class="cls-8" x="363.49" y="79.65" width="11.47" height="3.4"/><rect class="cls-8" x="331.1" y="86.85" width="3.99" height="4.1"/><rect class="cls-8" x="346.09" y="86.85" width="3.99" height="3.92"/><rect class="cls-8" x="335.21" y="102.78" width="5.8" height="2.19"/><rect class="cls-8" x="335.21" y="109.24" width="5.8" height="2.42"/><rect class="cls-8" x="335.21" y="115.93" width="5.8" height="2.6"/><rect class="cls-8" x="363.49" y="88.47" width="11.47" height="3.4"/><rect class="cls-8" x="363.49" y="97.24" width="11.47" height="3.46"/><rect class="cls-8" x="487.9" y="89.05" width="10.24" height="3.69"/><path class="cls-8" d="M274.39,82.94a80.06,80.06,0,0,1,8.18,4.78,32.16,32.16,0,0,0,2.19-5.82H275.1Z"/><path class="cls-8" d="M527.86,80.05v37.33h40.26V80.05ZM530,89.11h14.37V86.85H533.08V83.17h11.33V80.74h7v2.43h11.85v3.68H551.37v2.26h14.49v3.8H530Zm20.69,24.62c-11,2.43-12.83,3-13.92,3.58a10.22,10.22,0,0,0-1.74-3.51,3.07,3.07,0,0,0,2.12-3.24v-2.07c-1.73.57-3.47,1.09-5.08,1.54a41.89,41.89,0,0,0-3.68-3.8,61.36,61.36,0,0,0,12.25-3.45h-7.34V94.52H563v8.26H549.18a33.7,33.7,0,0,1-6.5,3.58v4.89l8.05-1.67A17.41,17.41,0,0,0,550.73,113.73Zm11.21,1.91a114.44,114.44,0,0,0-15.39-10l4.63-2.31c1.8,1,3.85,2.19,6,3.39,1.73-1.08,3.66-2.31,4.89-3.28l4.49,2.67a43.5,43.5,0,0,1-5.41,3,62.89,62.89,0,0,1,5.69,3.91Z"/><rect class="cls-8" x="230.19" y="80.05" width="10.24" height="3.69"/><rect class="cls-8" x="230.19" y="89.05" width="10.24" height="3.69"/><rect class="cls-8" x="469.42" y="89.05" width="10.37" height="3.69"/><rect class="cls-8" x="539.71" y="97.47" width="16.62" height="2.36"/><rect class="cls-8" x="211.7" y="80.05" width="10.37" height="3.69"/><rect class="cls-8" x="469.42" y="80.05" width="10.37" height="3.69"/><rect class="cls-8" x="211.7" y="89.05" width="10.37" height="3.69"/><path class="cls-1" d="M235.79,108.14h19v-6.28H230.19v-3.4h18.67V74.34h-45.2V98.46h18.41v3.4H197.41v6.28h19.05l5.61,3.53v13.9h8.12v-14.2a66.09,66.09,0,0,0,21.33,12.29,28.11,28.11,0,0,1,5.13-5.83A65.93,65.93,0,0,1,235.79,108.14Zm-5.6-28.09h10.24v3.69H230.19Zm0,9h10.24v3.68H230.19Zm-8.12,3.68H211.71V89.05h10.36Zm0-9H211.71V80.05h10.36Z"/><path class="cls-3" d="M222.07,111.67A63.11,63.11,0,0,1,200.62,124a37.21,37.21,0,0,0-5.21-5.71c7.66-2,15.66-5.83,21.05-10.15Z"/><path class="cls-1" d="M292.3,114a52,52,0,0,1,3.35,11l7.6-1.32a54.16,54.16,0,0,0-3.8-10.73Z"/><path class="cls-1" d="M305.44,113.85a70.85,70.85,0,0,1,7.66,11.88l7.22-2.94a73.16,73.16,0,0,0-8.12-11.48Z"/><path class="cls-1" d="M319.93,89.45V83H307.11c.07-1,.07-1.9.07-2.82V72.5H299.9v7.55a23.1,23.1,0,0,1-.13,2.94H292c.52-1.61,1-3.34,1.35-5.07l-4.76-1.62-1.35.18h-8.89c.64-1.22,1.28-2.37,1.8-3.52L273,71c-2.19,6-7.08,13.15-12.88,17.24a30.32,30.32,0,0,1,3,6.17,44.06,44.06,0,0,0,8.18-7.55,72,72,0,0,1,8.5,5.65c-4.38,6.29-10.62,10.61-18.29,13.32a27.48,27.48,0,0,1,5.35,5.25c11-4.32,19.71-12.51,24.41-25.72v4.09h7.41c-1.68,5.94-5.54,12.52-14.43,18a33,33,0,0,1,5.79,4.38c8.19-5.07,12.63-11.25,14.82-17.36a94.32,94.32,0,0,1,8.63,15.86l6.89-2.82c-2-4.85-6.63-12.12-10.88-18.06Zm-37.36-1.73a80.06,80.06,0,0,0-8.18-4.78l.71-1h9.66A32.16,32.16,0,0,1,282.57,87.72Z"/><path class="cls-1" d="M260.16,123.08l7.28,2.71a72.44,72.44,0,0,0,7.86-12.29l-7.22-1.67A55.76,55.76,0,0,1,260.16,123.08Z"/><path class="cls-1" d="M279.29,114.08a66.33,66.33,0,0,1,1.22,11.07l7.54-1a59.88,59.88,0,0,0-1.68-10.78Z"/><path class="cls-1" d="M275,92.05c-4.9,1.15-9.6,2.31-13,3l1.55,5.25,12.17-4Z"/><path class="cls-9" d="M320.06,79.81a41.61,41.61,0,0,0-6.06-7.5l-5.53,2.78a37.2,37.2,0,0,1,5.72,7.78Z"/><polygon class="cls-1" points="348.81 79.42 355.95 79.42 355.95 74.57 348.81 74.57 348.81 71.75 342.75 71.75 342.75 82.42 348.81 82.42 348.81 79.42"/><path class="cls-1" d="M379.59,112.24c-.13,6.63-.32,7.27-1.29,7.27H377c-.71,0-.76-.17-.76-1.56v-11.2h5.46V73.59H357v33.16h4.33c-.53,5.26-1.93,9.64-6.77,12.69v-.92h-7.73v-2.59h7.22v-4.26h-7.22v-2.43h6.77V105h-6.77v-2.19h8.06V98.22h-8a16,16,0,0,0-2.06-3.93h-1L340,95.68a19.09,19.09,0,0,1,1.35,2.54H335.8c.51-1,1-1.89,1.41-2.88l-3-1h-2.05a39.37,39.37,0,0,1-7.74,11.31,44.2,44.2,0,0,1,3,4.72,20.44,20.44,0,0,0,2.38-2.71v18h5.41v-2.48H354.6v-.35a19.37,19.37,0,0,1,2.06,2.88c8-4.15,10.31-10.72,11.07-18.92h2.66v11.3c0,5.14.95,6.87,5.6,6.87h3.09c3.8,0,5.35-2.08,5.8-10.44A17.4,17.4,0,0,1,379.59,112.24ZM341,118.52h-5.8v-2.59H341Zm0-6.85h-5.8v-2.43H341Zm0-6.7h-5.8v-2.19H341ZM375,100.7H363.48V97.25H375Zm0-8.82H363.48v-3.4H375Zm0-8.83H363.48v-3.4H375Z"/><polygon class="cls-1" points="332.9 82.42 338.82 82.42 338.82 71.75 332.9 71.75 332.9 74.63 324.78 74.63 324.78 79.47 332.9 79.47 332.9 82.42"/><path class="cls-5" d="M342,83.34v11h12.43v-11Zm8.11,7.43h-4V86.85h4Z"/><path class="cls-5" d="M327,83.4V94.35h12.49V83.4ZM335.09,91h-4v-4.1h4Z"/><path class="cls-4" d="M409.17,88.07l-7.48,2.65c-.95-3.75-3.85-9.68-6.62-14.25L402,74.11C404.85,78.43,408.08,84.14,409.17,88.07Z"/><path class="cls-1" d="M439.58,118.93h-5.93c-2.12,0-2.45-.35-2.45-2.37V99.2h17.07V92.74H422.89v-21h-7.72v21H390.43V99.2h15.72c-.9,9.4-2.64,16.5-17.39,20.42a19.37,19.37,0,0,1,4.64,6c16.87-5.08,19.83-14.31,20.93-26.42h9.15v17.42c0,6.57,1.8,8.77,9.08,8.77h7.66c6.38,0,8.31-2.71,9.08-12.81a25,25,0,0,1-7-2.77C442,117.66,441.64,118.93,439.58,118.93Z"/><path class="cls-1" d="M493.51,108.14h19v-6.28h-24.6v-3.4h18.67V74.34H461.37V98.46h18.42v3.4H455.13v6.28h19.05l5.61,3.53v13.9h8.12v-14.2a66.11,66.11,0,0,0,21.31,12.29,28.22,28.22,0,0,1,5.15-5.83A65.72,65.72,0,0,1,493.51,108.14Zm-5.6-28.09h10.24v3.69H487.91Zm0,9h10.24v3.68H487.91Zm-8.12,3.68H469.41V89.05h10.38Zm0-9H469.41V80.05h10.38Z"/><path class="cls-3" d="M479.79,111.67A63.11,63.11,0,0,1,458.34,124a36.87,36.87,0,0,0-5.23-5.71,60.05,60.05,0,0,0,21.07-10.15Z"/><polygon class="cls-1" points="565.86 89.11 551.37 89.11 551.37 86.86 563.22 86.86 563.22 83.17 551.37 83.17 551.37 80.74 544.41 80.74 544.41 83.17 533.07 83.17 533.07 86.86 544.41 86.86 544.41 89.11 530.04 89.11 530.04 92.91 565.86 92.91 565.86 89.11"/><path class="cls-1" d="M532.11,110c1.61-.46,3.35-1,5.08-1.55v2.07a3,3,0,0,1-2.12,3.23,10.55,10.55,0,0,1,1.74,3.52c1.09-.58,3-1.15,13.91-3.58a18,18,0,0,1,0-4.15l-8.05,1.68v-4.91a33.26,33.26,0,0,0,6.51-3.57H563V94.53H533.33v8.25h7.34a61.27,61.27,0,0,1-12.24,3.46A40.58,40.58,0,0,1,532.11,110Zm7.6-10.2V97.47h16.62v2.37Z"/><path class="cls-1" d="M520.64,73.89v51.73h7.22v-2.08h40.26v2.08h7.46V73.89Zm47.48,43.49H527.86V80.05h40.26Z"/><path class="cls-2" d="M566.83,113l-4.89,2.6a114.44,114.44,0,0,0-15.39-10l4.63-2.31c1.8,1,3.85,2.19,6,3.39,1.73-1.08,3.66-2.31,4.89-3.28l4.49,2.67a43.5,43.5,0,0,1-5.41,3A62.89,62.89,0,0,1,566.83,113Z"/></g></g></svg>